<svg width="180" height="180" viewBox="0 0 180 180" fill="none" xmlns="http://www.w3.org/2000/svg">
  <defs>
    <linearGradient id="sky" x1="0" y1="0" x2="0" y2="1">
      <stop offset="0" stop-color="#4FB3FF" />
      <stop offset="1" stop-color="#BFE6FF" />
    </linearGradient>
    <linearGradient id="field" x1="0" y1="0" x2="1" y2="1">
      <stop offset="0" stop-color="#2F8F4E" />
      <stop offset="1" stop-color="#7BC96F" />
    </linearGradient>
    <linearGradient id="rice" x1="0" y1="0" x2="1" y2="0">
      <stop offset="0" stop-color="#F4D35E" />
      <stop offset="1" stop-color="#F6C453" />
    </linearGradient>
  </defs>
  <rect width="180" height="180" rx="36" fill="url(#sky)" />
  <circle cx="136" cy="44" r="18" fill="#FFD166" />
  <path d="M0 112C30 100 60 100 90 112C120 124 150 124 180 112V180H0V112Z" fill="url(#field)" />
  <path d="M0 132C30 120 60 120 90 132C120 144 150 144 180 132" stroke="#1F6F3D" stroke-width="6" stroke-linecap="round" />
  <path d="M0 152C30 140 60 140 90 152C120 164 150 164 180 152" stroke="#1B5E33" stroke-width="6" stroke-linecap="round" />
  <path d="M52 104C52 86 62 72 76 64" stroke="#3E7B3A" stroke-width="6" stroke-linecap="round" />
  <path d="M76 64C90 60 98 52 104 44" stroke="url(#rice)" stroke-width="6" stroke-linecap="round" />
  <circle cx="106" cy="40" r="5" fill="#F4D35E" />
  <circle cx="114" cy="36" r="5" fill="#F4D35E" />
  <circle cx="122" cy="32" r="5" fill="#F4D35E" />
</svg>